<svg xmlns="http://www.w3.org/2000/svg"  viewBox="0 0 50 50" width="150px" height="150px"><path d="M13.224 9L16 12c-.093.001-9.371.251-10.454 1.847-.179.264-.224.531-.135.794C5.685 15.458 7.01 16 7.01 16s-3.399-.616-4.677-1.819c-.51-.479-.245-1.165.173-1.648C3.786 11.056 8.606 9.504 13.224 9M13.224 7c-.072 0-.145.004-.217.012C8.417 7.512 2.817 9.12.994 11.224c-1.25 1.442-1.262 3.257-.031 4.415 1.627 1.53 5.026 2.209 5.69 2.329C6.773 17.99 6.893 18 7.011 18c.874 0 1.666-.575 1.919-1.44.192-.658.03-1.341-.381-1.837 1.895-.377 5.011-.67 7.487-.723.787-.017 1.494-.494 1.802-1.218.307-.725.165-1.562-.37-2.14l-2.776-3C14.311 7.23 13.778 7 13.224 7L13.224 7zM36.776 9c4.618.504 9.438 2.056 10.719 3.534.418.482.683 1.168.173 1.648C46.389 15.384 42.99 16 42.99 16s1.325-.542 1.599-1.359c.089-.263.043-.53-.135-.794C43.371 12.251 34.093 12.001 34 12L36.776 9M36.776 7c-.554 0-1.087.23-1.468.642l-2.776 3c-.538.582-.682 1.427-.367 2.154.315.727 1.031 1.2 1.823 1.204 2.462.053 5.577.346 7.47.724-.413.501-.574 1.189-.377 1.847C41.339 17.43 42.123 18 42.99 18c.118 0 .237-.01.357-.032.665-.12 4.063-.799 5.691-2.33 1.231-1.157 1.218-2.972-.032-4.414-1.823-2.104-7.424-3.712-12.013-4.212C36.921 7.004 36.848 7 36.776 7L36.776 7zM25 2c0 1.707 1.753 5.5 5.5 5.5-3.747 0-5.5 3.793-5.5 5.5 0-1.707-1.753-5.5-5.5-5.5C23.247 7.5 25 3.707 25 2M25 0c-1.105 0-2 .895-2 2 0 .594-.953 3.5-3.5 3.5-1.105 0-2 .895-2 2s.895 2 2 2c2.547 0 3.5 2.906 3.5 3.5 0 1.105.895 2 2 2s2-.895 2-2c0-.594.953-3.5 3.5-3.5 1.105 0 2-.895 2-2s-.895-2-2-2C27.953 5.5 27 2.594 27 2 27 .895 26.105 0 25 0L25 0zM24.541 19.089c1.843 0 4.202.423 6.156 1.105 1.365.492 2.583.515 3.991.541H35V29c-.047-.315-1.138-7.17-9.234-7.71-6.941 0-8.765 7.175-8.765 10.968 0 3.415 1.61 13.162 8.766 13.162.001 0 .001 0 .002 0 .876 0 2.339-.387 3.058-.905l.228-.164v-5.012c0-1.953-2.538-3.006-4.054-3.29h12.82C36.8 36.135 35 36.81 35 38.791v4.984c-2.021 2.583-4.987 3.839-9.233 3.839-9.103 0-14.757-5.863-14.757-15.301-.004-.195-.004-.391.001-.587.165-6.966 5.91-12.633 12.807-12.633.095 0 .191.001.287.003C24.27 19.091 24.404 19.089 24.541 19.089M24.541 17.089c-.141 0-.28.002-.444.007-.094-.002-.187-.003-.28-.003-7.974 0-14.616 6.543-14.807 14.585-.005.225-.005.449-.001.673 0 10.471 6.577 17.262 16.757 17.262 4.848 0 8.384-1.507 10.809-4.606C36.85 44.655 37 44.221 37 43.775v-4.984c0-.633.824-.735.989-.749 1.068-.091 1.874-1.007 1.829-2.078-.045-1.071-.927-1.915-1.998-1.915H25c-1.033 0-1.896.786-1.991 1.815-.096 1.028.607 1.96 1.623 2.151 1.337.251 2.423.981 2.423 1.325v3.822c-.421.141-.942.259-1.286.259-5.619 0-6.768-8.804-6.768-11.162 0-.365.077-8.912 6.7-8.968 6.317.456 7.236 5.434 7.321 6.002.146.987.994 1.707 1.977 1.707.049 0 .099-.002.149-.005C36.192 30.917 37 30.047 37 29v-8.266c0-1.105-.895-2-2-2h-.311c-1.297-.024-2.259-.042-3.313-.422C29.205 17.555 26.593 17.089 24.541 17.089L24.541 17.089z"/></svg>